<?xml version="1.0" encoding="utf-8"?>
<!-- Generator: Adobe Illustrator 15.0.2, SVG Export Plug-In . SVG Version: 6.00 Build 0)  -->
<!DOCTYPE svg PUBLIC "-//W3C//DTD SVG 1.1//EN" "http://www.w3.org/Graphics/SVG/1.1/DTD/svg11.dtd">
<svg version="1.1" id="圖層_1" xmlns="http://www.w3.org/2000/svg" xmlns:xlink="http://www.w3.org/1999/xlink" x="0px" y="0px"
	 width="690px" height="690px" viewBox="0 0 690 690" enable-background="new 0 0 690 690" xml:space="preserve">
<g>
	<rect x="201" y="1" fill="#FFE3BB" width="10" height="10"/>
	<rect x="431" y="1" fill="#FFE3BB" width="10" height="10"/>
	<rect x="481" y="1" fill="#FFE3BB" width="10" height="10"/>
	<path fill="#FFE3BB" d="M601,1h-10h-10h-10h-10h-10h-10v10v10v10v10v10v10v10h10h10h10h10h10h10h10V61V51V41V31V21V11V1H601z
		 M601,21v10v10v10v10h-10h-10h-10h-10h-10V51V41V31V21V11h10h10h10h10h10V21z"/>
	<polygon fill="#FFE3BB" points="221,21 221,31 211,31 211,41 221,41 221,51 211,51 211,41 201,41 201,51 201,61 201,71 211,71 
		211,61 221,61 221,71 231,71 231,61 241,61 241,71 251,71 251,61 251,51 261,51 261,41 251,41 251,31 251,21 251,11 251,1 241,1 
		241,11 241,21 241,31 241,41 241,51 231,51 231,41 231,31 231,21 231,11 231,1 221,1 221,11 211,11 211,21 	"/>
	<polygon fill="#FFE3BB" points="371,11 371,1 361,1 351,1 351,11 361,11 361,21 371,21 	"/>
	<polygon fill="#FFE3BB" points="471,21 471,11 471,1 461,1 451,1 451,11 451,21 461,21 	"/>
	<rect x="91" y="21" fill="#FFE3BB" width="10" height="10"/>
	<polygon fill="#FFE3BB" points="201,21 201,11 191,11 191,21 191,31 201,31 	"/>
	<rect x="351" y="21" fill="#FFE3BB" width="10" height="10"/>
	<polygon fill="#FFE3BB" points="571,21 561,21 561,31 561,41 561,51 571,51 581,51 591,51 591,41 591,31 591,21 581,21 	"/>
	<rect x="81" y="31" fill="#FFE3BB" width="10" height="10"/>
	<polygon fill="#FFE3BB" points="351,41 351,31 341,31 331,31 331,41 341,41 	"/>
	<polygon fill="#FFE3BB" points="41,51 51,51 51,41 51,31 51,21 41,21 31,21 21,21 21,31 21,41 21,51 31,51 	"/>
	<rect x="91" y="41" fill="#FFE3BB" width="10" height="10"/>
	<rect x="351" y="41" fill="#FFE3BB" width="10" height="10"/>
	<rect x="471" y="41" fill="#FFE3BB" width="10" height="10"/>
	<path fill="#FFE3BB" d="M21,71h10h10h10h10h10V61V51V41V31V21V11V1H61H51H41H31H21H11H1v10v10v10v10v10v10v10h10H21z M11,51V41V31
		V21V11h10h10h10h10h10v10v10v10v10v10H51H41H31H21H11V51z"/>
	<rect x="141" y="61" fill="#FFE3BB" width="10" height="10"/>
	<polygon fill="#FFE3BB" points="161,71 161,81 171,81 171,71 171,61 171,51 171,41 181,41 191,41 191,31 181,31 171,31 161,31 
		161,21 171,21 181,21 181,11 181,1 171,1 161,1 151,1 151,11 141,11 141,21 151,21 151,31 151,41 161,41 161,51 151,51 151,61 
		161,61 	"/>
	<rect x="261" y="61" fill="#FFE3BB" width="10" height="10"/>
	<rect x="301" y="61" fill="#FFE3BB" width="10" height="10"/>
	<polygon fill="#FFE3BB" points="351,61 341,61 341,71 341,81 351,81 351,71 	"/>
	<polygon fill="#FFE3BB" points="361,71 371,71 371,61 381,61 381,71 391,71 391,61 391,51 391,41 401,41 411,41 411,51 421,51 
		421,41 421,31 431,31 431,21 421,21 411,21 401,21 401,11 391,11 391,1 381,1 381,11 381,21 391,21 391,31 381,31 371,31 371,41 
		371,51 361,51 361,61 	"/>
	<rect x="401" y="61" fill="#FFE3BB" width="10" height="10"/>
	<polygon fill="#FFE3BB" points="421,71 431,71 431,61 441,61 441,71 441,81 451,81 461,81 461,71 451,71 451,61 451,51 461,51 
		461,41 471,41 471,31 461,31 451,31 451,21 441,21 441,31 441,41 431,41 431,51 421,51 421,61 	"/>
	<rect x="461" y="61" fill="#FFE3BB" width="10" height="10"/>
	<polygon fill="#FFE3BB" points="91,71 91,61 81,61 81,71 81,81 91,81 	"/>
	<path fill="#FFE3BB" d="M281,81v10h10h10v10v10h10h10h10v-10V91h10V81h-10V71V61h10V51h-10V41h-10V31h-10v10h-10V31h-10V21h10h10
		h10h10V11h-10h-10h-10h-10h-10h-10h-10v10v10h10V21h10v10h-10v10h10v10v10v10h-10v10H281z M321,101h-10V91h10V101z M291,61V51h10
		h10h10v10v10v10h-10h-10h-10V71V61z"/>
	<polygon fill="#FFE3BB" points="121,91 131,91 141,91 151,91 151,81 141,81 131,81 131,71 131,61 141,61 141,51 131,51 121,51 
		121,41 131,41 131,31 131,21 131,11 131,1 121,1 111,1 101,1 91,1 81,1 81,11 81,21 91,21 91,11 101,11 101,21 111,21 111,11 
		121,11 121,21 121,31 111,31 111,41 111,51 101,51 101,61 101,71 111,71 111,61 121,61 121,71 111,71 111,81 101,81 101,91 111,91 
			"/>
	<polygon fill="#FFE3BB" points="241,81 241,71 231,71 231,81 221,81 221,71 211,71 211,81 201,81 201,71 191,71 191,61 181,61 
		181,71 181,81 181,91 171,91 171,101 181,101 191,101 191,111 201,111 201,101 201,91 211,91 221,91 231,91 241,91 241,101 
		251,101 261,101 271,101 271,91 261,91 261,81 261,71 251,71 251,81 	"/>
	<path fill="#FFE3BB" d="M391,91h10v10h10v10h10v10h10h10v-10v-10V91V81h-10h-10V71h-10v10h-10h-10h-10V71h-10v10v10h10H391z
		 M431,91v10h-10V91H431z"/>
	<polygon fill="#FFE3BB" points="591,81 591,91 581,91 581,81 571,81 571,91 561,91 551,91 551,81 541,81 541,91 531,91 521,91 
		521,81 531,81 531,71 531,61 521,61 521,71 511,71 511,61 511,51 521,51 521,41 511,41 511,31 521,31 521,41 531,41 531,31 531,21 
		531,11 531,1 521,1 511,1 511,11 511,21 501,21 501,11 491,11 491,21 491,31 501,31 501,41 501,51 491,51 481,51 481,61 481,71 
		481,81 491,81 491,71 491,61 501,61 501,71 501,81 491,81 491,91 481,91 471,91 471,101 461,101 461,111 461,121 461,131 471,131 
		471,141 481,141 481,151 491,151 491,141 491,131 491,121 481,121 481,111 481,101 491,101 501,101 501,91 511,91 511,101 521,101 
		531,101 541,101 551,101 561,101 571,101 581,101 591,101 601,101 611,101 611,91 611,81 601,81 	"/>
	<polygon fill="#FFE3BB" points="91,101 101,101 101,91 91,91 81,91 81,101 	"/>
	<polygon fill="#FFE3BB" points="41,111 51,111 61,111 71,111 81,111 81,101 71,101 61,101 61,91 71,91 81,91 81,81 71,81 61,81 
		51,81 51,91 41,91 41,81 31,81 21,81 21,91 11,91 11,81 1,81 1,91 1,101 11,101 21,101 21,111 31,111 	"/>
	<rect x="111" y="101" fill="#FFE3BB" width="10" height="10"/>
	<rect x="161" y="101" fill="#FFE3BB" width="10" height="10"/>
	<polygon fill="#FFE3BB" points="231,111 231,121 241,121 241,111 241,101 231,101 	"/>
	<polygon fill="#FFE3BB" points="281,111 281,121 281,131 291,131 301,131 301,121 291,121 291,111 291,101 281,101 271,101 
		271,111 	"/>
	<polygon fill="#FFE3BB" points="501,111 491,111 491,121 501,121 501,131 501,141 501,151 511,151 521,151 521,141 511,141 
		511,131 511,121 511,111 511,101 501,101 	"/>
	<polygon fill="#FFE3BB" points="11,111 1,111 1,121 1,131 11,131 11,121 21,121 21,111 	"/>
	<rect x="81" y="111" fill="#FFE3BB" width="10" height="10"/>
	<rect x="101" y="111" fill="#FFE3BB" width="10" height="10"/>
	<rect x="121" y="111" fill="#FFE3BB" width="10" height="10"/>
	<polygon fill="#FFE3BB" points="171,111 171,121 181,121 191,121 191,111 181,111 	"/>
	<polygon fill="#FFE3BB" points="271,111 261,111 251,111 251,121 251,131 261,131 271,131 271,121 	"/>
	<rect x="541" y="111" fill="#FFE3BB" width="10" height="10"/>
	<rect x="561" y="111" fill="#FFE3BB" width="10" height="10"/>
	<polygon fill="#FFE3BB" points="611,121 611,111 601,111 591,111 591,121 601,121 	"/>
	<rect x="61" y="121" fill="#FFE3BB" width="10" height="10"/>
	<rect x="91" y="121" fill="#FFE3BB" width="10" height="10"/>
	<polygon fill="#FFE3BB" points="151,131 161,131 161,141 171,141 181,141 181,151 191,151 191,141 191,131 181,131 171,131 
		171,121 161,121 161,111 151,111 151,101 141,101 141,111 141,121 151,121 	"/>
	<polygon fill="#FFE3BB" points="211,121 211,131 221,131 221,141 211,141 211,151 221,151 231,151 231,141 241,141 241,131 
		231,131 231,121 221,121 	"/>
	<rect x="441" y="121" fill="#FFE3BB" width="10" height="10"/>
	<rect x="581" y="121" fill="#FFE3BB" width="10" height="10"/>
	<polygon fill="#FFE3BB" points="41,131 51,131 51,121 41,121 31,121 21,121 21,131 31,131 31,141 41,141 	"/>
	<rect x="71" y="131" fill="#FFE3BB" width="10" height="10"/>
	<polygon fill="#FFE3BB" points="271,141 261,141 261,151 261,161 251,161 251,171 261,171 261,181 271,181 271,171 271,161 
		281,161 281,151 281,141 281,131 271,131 	"/>
	<rect x="301" y="131" fill="#FFE3BB" width="10" height="10"/>
	<polygon fill="#FFE3BB" points="321,141 331,141 331,131 341,131 341,121 331,121 321,121 311,121 311,131 321,131 	"/>
	<polygon fill="#FFE3BB" points="361,131 351,131 351,141 351,151 361,151 371,151 371,141 361,141 	"/>
	<rect x="591" y="131" fill="#FFE3BB" width="10" height="10"/>
	<rect x="1" y="141" fill="#FFE3BB" width="10" height="10"/>
	<rect x="61" y="141" fill="#FFE3BB" width="10" height="10"/>
	<rect x="91" y="141" fill="#FFE3BB" width="10" height="10"/>
	<rect x="291" y="141" fill="#FFE3BB" width="10" height="10"/>
	<polygon fill="#FFE3BB" points="531,151 541,151 551,151 551,141 541,141 541,131 531,131 531,121 521,121 521,131 521,141 
		531,141 	"/>
	<polygon fill="#FFE3BB" points="51,161 51,151 41,151 31,151 31,141 21,141 21,151 21,161 31,161 31,171 41,171 41,161 	"/>
	<rect x="111" y="151" fill="#FFE3BB" width="10" height="10"/>
	<polygon fill="#FFE3BB" points="151,151 161,151 161,141 151,141 151,131 141,131 141,121 131,121 131,131 121,131 111,131 
		101,131 101,141 111,141 121,141 121,151 131,151 141,151 141,161 151,161 	"/>
	<polygon fill="#FFE3BB" points="181,161 181,151 171,151 161,151 161,161 171,161 	"/>
	<polygon fill="#FFE3BB" points="321,151 321,141 311,141 311,151 301,151 301,161 311,161 321,161 331,161 331,171 341,171 
		341,181 341,191 351,191 351,181 361,181 361,171 351,171 351,161 341,161 341,151 341,141 331,141 331,151 	"/>
	<path fill="#FFE3BB" d="M521,161h-10h-10v10v10v10h-10v-10h-10v-10v-10v-10h-10v10h-10v10h10v10h-10v-10h-10v-10h10v-10v-10h-10
		h-10v-10h-10v10v10h10v10v10h-10h-10h-10v10h10h10h10v10h10h10v10h10v10h-10v-10h-10h-10v10h10v10v10h10h10v10h10h10h10v10h-10v10
		v10v10h10v-10v-10h10v-10h10v-10h-10v-10h-10h-10h-10v-10h10v-10v-10h10v10v10h10v-10h10h10v-10v-10v-10h10h10v10h10v10h-10v-10
		h-10v10v10h-10v10v10h10v10h10v-10v-10v-10h10h10v-10h10v-10h10h10h10v-10h-10h-10v-10v-10h-10v10v10h-10h-10v-10h-10v-10h-10h-10
		v-10h-10V161z M521,191v10h-10v-10v-10v-10h10v10V191z"/>
	<rect x="81" y="161" fill="#FFE3BB" width="10" height="10"/>
	<polygon fill="#FFE3BB" points="191,171 201,171 201,161 201,151 191,151 191,161 	"/>
	<polygon fill="#FFE3BB" points="291,171 291,181 281,181 281,191 291,191 301,191 301,181 311,181 311,171 301,171 301,161 
		291,161 	"/>
	<polygon fill="#FFE3BB" points="571,161 571,151 581,151 581,141 581,131 571,131 571,141 561,141 561,151 561,161 561,171 
		571,171 	"/>
	<polygon fill="#FFE3BB" points="601,171 611,171 611,161 611,151 601,151 591,151 591,161 601,161 	"/>
	<rect x="181" y="171" fill="#FFE3BB" width="10" height="10"/>
	<polygon fill="#FFE3BB" points="241,181 241,171 241,161 231,161 221,161 221,171 221,181 231,181 	"/>
	<rect x="321" y="171" fill="#FFE3BB" width="10" height="10"/>
	<rect x="11" y="181" fill="#FFE3BB" width="10" height="10"/>
	<polygon fill="#FFE3BB" points="111,181 121,181 121,171 111,171 101,171 101,181 101,191 111,191 	"/>
	<polygon fill="#FFE3BB" points="131,191 131,201 141,201 141,191 151,191 151,181 161,181 161,171 161,161 151,161 151,171 
		141,171 141,161 131,161 131,171 131,181 121,181 121,191 	"/>
	<polygon fill="#FFE3BB" points="161,181 161,191 161,201 161,211 161,221 171,221 171,211 171,201 171,191 181,191 181,181 
		171,181 	"/>
	<rect x="241" y="181" fill="#FFE3BB" width="10" height="10"/>
	<polygon fill="#FFE3BB" points="371,191 371,201 381,201 381,191 381,181 391,181 391,171 401,171 401,161 411,161 421,161 
		421,151 421,141 411,141 411,131 411,121 401,121 391,121 391,111 401,111 401,101 391,101 381,101 381,111 381,121 371,121 
		371,111 361,111 361,101 371,101 371,91 361,91 361,81 351,81 351,91 351,101 351,111 351,121 361,121 361,131 371,131 371,141 
		381,141 391,141 391,131 401,131 401,141 391,141 391,151 381,151 381,161 371,161 371,171 371,181 361,181 361,191 	"/>
	<polygon fill="#FFE3BB" points="401,191 401,201 411,201 411,211 421,211 421,201 431,201 431,191 421,191 411,191 411,181 
		401,181 	"/>
	<rect x="31" y="191" fill="#FFE3BB" width="10" height="10"/>
	<rect x="111" y="191" fill="#FFE3BB" width="10" height="10"/>
	<polygon fill="#FFE3BB" points="191,201 201,201 211,201 211,191 201,191 201,181 191,181 191,191 	"/>
	<rect x="221" y="191" fill="#FFE3BB" width="10" height="10"/>
	<polygon fill="#FFE3BB" points="261,201 271,201 271,191 261,191 251,191 251,201 	"/>
	<rect x="181" y="201" fill="#FFE3BB" width="10" height="10"/>
	<rect x="211" y="201" fill="#FFE3BB" width="10" height="10"/>
	<polygon fill="#FFE3BB" points="351,211 351,221 361,221 371,221 371,211 361,211 361,201 361,191 351,191 351,201 341,201 
		331,201 331,211 341,211 	"/>
	<rect x="601" y="201" fill="#FFE3BB" width="10" height="10"/>
	<rect x="251" y="211" fill="#FFE3BB" width="10" height="10"/>
	<polygon fill="#FFE3BB" points="381,221 391,221 391,231 401,231 411,231 411,221 401,221 401,211 401,201 391,201 381,201 
		381,211 	"/>
	<rect x="431" y="211" fill="#FFE3BB" width="10" height="10"/>
	<polygon fill="#FFE3BB" points="571,211 571,221 581,221 581,231 571,231 561,231 561,241 571,241 581,241 591,241 591,231 
		591,221 591,211 591,201 581,201 581,211 	"/>
	<rect x="261" y="221" fill="#FFE3BB" width="10" height="10"/>
	<polygon fill="#FFE3BB" points="301,221 301,211 291,211 291,201 281,201 281,211 271,211 271,221 281,221 291,221 291,231 
		281,231 271,231 271,241 271,251 271,261 281,261 281,251 291,251 291,241 301,241 301,231 311,231 311,221 	"/>
	<polygon fill="#FFE3BB" points="331,221 331,211 321,211 321,201 311,201 301,201 301,211 311,211 311,221 321,221 321,231 
		331,231 	"/>
	<rect x="371" y="221" fill="#FFE3BB" width="10" height="10"/>
	<rect x="511" y="221" fill="#FFE3BB" width="10" height="10"/>
	<polygon fill="#FFE3BB" points="11,231 21,231 21,221 21,211 21,201 11,201 11,191 1,191 1,201 1,211 11,211 11,221 1,221 1,231 
		1,241 11,241 	"/>
	<rect x="151" y="231" fill="#FFE3BB" width="10" height="10"/>
	<rect x="171" y="231" fill="#FFE3BB" width="10" height="10"/>
	<polygon fill="#FFE3BB" points="191,241 201,241 201,231 211,231 211,221 201,221 191,221 181,221 181,231 191,231 	"/>
	<rect x="221" y="231" fill="#FFE3BB" width="10" height="10"/>
	<rect x="251" y="231" fill="#FFE3BB" width="10" height="10"/>
	<polygon fill="#FFE3BB" points="351,241 351,231 341,231 331,231 331,241 341,241 	"/>
	<rect x="361" y="231" fill="#FFE3BB" width="10" height="10"/>
	<rect x="381" y="231" fill="#FFE3BB" width="10" height="10"/>
	<rect x="521" y="231" fill="#FFE3BB" width="10" height="10"/>
	<polygon fill="#FFE3BB" points="51,241 51,251 61,251 71,251 71,241 61,241 	"/>
	<rect x="141" y="241" fill="#FFE3BB" width="10" height="10"/>
	<polygon fill="#FFE3BB" points="601,251 591,251 591,261 591,271 591,281 601,281 601,271 611,271 611,261 611,251 611,241 
		601,241 	"/>
	<polygon fill="#FFE3BB" points="111,261 101,261 101,271 111,271 121,271 131,271 141,271 141,261 141,251 131,251 131,261 
		121,261 121,251 131,251 131,241 121,241 111,241 111,251 	"/>
	<polygon fill="#FFE3BB" points="171,251 161,251 161,261 161,271 171,271 171,261 	"/>
	<rect x="181" y="251" fill="#FFE3BB" width="10" height="10"/>
	<polygon fill="#FFE3BB" points="231,261 231,271 241,271 241,261 241,251 251,251 251,241 241,241 231,241 231,251 221,251 
		211,251 211,261 221,261 	"/>
	<rect x="251" y="251" fill="#FFE3BB" width="10" height="10"/>
	<rect x="291" y="251" fill="#FFE3BB" width="10" height="10"/>
	<polygon fill="#FFE3BB" points="411,251 421,251 421,241 431,241 431,231 421,231 411,231 411,241 401,241 401,251 391,251 
		381,251 381,261 371,261 371,271 361,271 361,281 371,281 371,291 361,291 361,301 351,301 351,311 341,311 341,321 351,321 
		351,331 351,341 361,341 371,341 381,341 381,331 391,331 391,321 391,311 381,311 381,321 371,321 371,331 361,331 361,321 
		361,311 371,311 371,301 381,301 381,291 391,291 391,301 391,311 401,311 401,321 411,321 411,311 421,311 431,311 431,301 
		431,291 421,291 421,301 411,301 401,301 401,291 401,281 391,281 391,271 401,271 411,271 411,261 	"/>
	<polygon fill="#FFE3BB" points="211,261 201,261 191,261 191,271 201,271 201,281 211,281 211,271 	"/>
	<path fill="#FFE3BB" d="M521,271v10v10h-10v10h10v10h-10h-10v10h10h10v10h10v10h10v-10h10h10h10v-10v-10v-10v-10v-10v-10h10v-10
		v-10h-10v10h-10v-10h-10v10v10h-10v-10h-10h-10h-10v10H521z M561,301v10v10h-10h-10h-10v-10v-10v-10h10h10h10V301z"/>
	<polygon fill="#FFE3BB" points="151,271 141,271 141,281 131,281 131,291 141,291 151,291 151,281 	"/>
	<rect x="171" y="271" fill="#FFE3BB" width="10" height="10"/>
	<polygon fill="#FFE3BB" points="21,291 21,281 11,281 1,281 1,291 11,291 	"/>
	<polygon fill="#FFE3BB" points="241,291 251,291 251,281 261,281 261,291 271,291 271,281 271,271 261,271 251,271 241,271 
		241,281 	"/>
	<rect x="501" y="281" fill="#FFE3BB" width="10" height="10"/>
	<polygon fill="#FFE3BB" points="221,301 221,311 231,311 231,301 231,291 231,281 231,271 221,271 221,281 211,281 211,291 
		221,291 	"/>
	<polygon fill="#FFE3BB" points="261,291 251,291 251,301 251,311 261,311 261,301 	"/>
	<rect x="61" y="301" fill="#FFE3BB" width="10" height="10"/>
	<rect x="121" y="301" fill="#FFE3BB" width="10" height="10"/>
	<rect x="301" y="301" fill="#FFE3BB" width="10" height="10"/>
	<path fill="#FFE3BB" d="M491,301h10v-10h-10h-10v-10v-10v-10h-10v10h-10v-10v-10v-10h-10h-10v10h-10v10h-10v10h-10v10h10h10v-10h10
		h10v10h-10v10h10v10h-10v10h10v10h-10v-10h-10v10v10h-10h-10h-10h-10v10h-10v10v10h-10v-10h-10h-10v10h10v10h10h10v10v10v10v10h10
		v-10h10v10h-10v10h10h10h10h10v10h10h10v10h10v-10h10v-10h-10v-10v-10h-10v10v10h-10v-10h-10h-10v-10h-10v-10h-10v-10h10v10h10v10
		h10v-10h10v-10h-10v-10v-10v-10h-10v10v10h-10h-10v-10h-10v-10h10v-10h10v10h10v-10h10h10v-10h10v10v10h10h10v-10h-10v-10v-10v-10
		h10h10v10h10v-10V301z M461,281h10v10h-10V281z"/>
	<rect x="541" y="301" fill="#FFE3BB" width="10" height="10"/>
	<rect x="101" y="311" fill="#FFE3BB" width="10" height="10"/>
	<polygon fill="#FFE3BB" points="201,311 201,321 201,331 211,331 211,321 221,321 221,311 211,311 	"/>
	<polygon fill="#FFE3BB" points="181,321 171,321 161,321 161,311 171,311 181,311 191,311 201,311 201,301 211,301 211,291 
		201,291 191,291 191,281 181,281 181,291 181,301 171,301 171,291 171,281 161,281 161,291 151,291 151,301 151,311 141,311 
		131,311 131,321 141,321 151,321 151,331 161,331 171,331 181,331 191,331 191,321 	"/>
	<rect x="491" y="321" fill="#FFE3BB" width="10" height="10"/>
	<rect x="131" y="331" fill="#FFE3BB" width="10" height="10"/>
	<rect x="191" y="331" fill="#FFE3BB" width="10" height="10"/>
	<rect x="211" y="331" fill="#FFE3BB" width="10" height="10"/>
	<path fill="#FFE3BB" d="M591,331v-10h10h10v-10v-10v-10h-10h-10h-10v10v10v10v10v10h10V331z M591,301h10v10h-10V301z"/>
	<rect x="601" y="331" fill="#FFE3BB" width="10" height="10"/>
	<path fill="#FFE3BB" d="M61,351h10v10h10v-10v-10H71H61v-10h10h10v10h10v-10v-10v-10v-10h10h10h10v-10h-10h-10H91v-10v-10v-10v-10
		h10v-10h10v-10h10v-10h10v10h10v-10v-10h-10h-10h-10v-10h-10v-10H91H81H71v10H61v-10h10v-10H61v-10h10v-10H61H51v10H41v10h10v10v10
		v10h10h10v10H61H51v-10H41H31v10h10v10h10h10h10v10h10v10v10H71H61v10h10h10v10H71H61H51v-10v-10H41H31v-10v-10H21v10H11H1v10v10
		h10v-10h10v10h10h10v10H31v10v10h10v10H31H21v10h10v10H21v10h10h10v10h10H61z M81,221v-10v-10h10v10h10v10H91v10H81V221z M51,301
		v-10h10h10h10v10v10v10H71H61H51v-10V301z"/>
	<polygon fill="#FFE3BB" points="101,351 111,351 111,361 111,371 121,371 121,361 121,351 121,341 111,341 101,341 91,341 91,351 	
		"/>
	<rect x="181" y="341" fill="#FFE3BB" width="10" height="10"/>
	<polygon fill="#FFE3BB" points="201,351 201,361 211,361 211,351 211,341 201,341 	"/>
	<path fill="#FFE3BB" d="M341,341v-10h-10v-10v-10h10v-10h10v-10v-10h-10v-10h10h10v-10h10v-10h-10h-10v10h-10v-10h-10v-10h-10v-10
		h-10v10h-10v10h10h10v10h10v10h-10v10h-10v-10h-10v10h-10h-10v10v10v10h-10h-10v10h-10h-10v10h10v10v10v10h-10v10h10h10v-10h10v10
		v10h10v-10h10v-10v-10h-10h-10v-10h10h10v10h10h10v-10h-10v-10h10h10v10h10v10h10h10v-10H341z M271,331v-10h10v10H271z M311,321
		h-10h-10v-10v-10v-10h10h10h10v10v10v10H311z"/>
	<polygon fill="#FFE3BB" points="481,341 481,351 491,351 501,351 501,341 491,341 	"/>
	<polygon fill="#FFE3BB" points="41,361 41,351 31,351 21,351 21,361 31,361 	"/>
	<rect x="171" y="351" fill="#FFE3BB" width="10" height="10"/>
	<polygon fill="#FFE3BB" points="231,351 221,351 221,361 221,371 211,371 211,381 221,381 221,391 211,391 201,391 201,401 
		211,401 211,411 201,411 201,421 211,421 211,431 201,431 201,421 191,421 191,411 191,401 181,401 171,401 171,411 181,411 
		181,421 181,431 181,441 181,451 191,451 191,441 201,441 201,451 211,451 211,441 221,441 221,451 211,451 211,461 211,471 
		221,471 221,461 231,461 231,451 241,451 241,461 241,471 251,471 261,471 261,461 271,461 281,461 291,461 291,451 281,451 
		281,441 271,441 271,451 261,451 261,441 271,441 271,431 261,431 261,421 261,411 271,411 271,421 271,431 281,431 281,421 
		291,421 291,411 291,401 281,401 281,391 271,391 261,391 261,401 251,401 251,411 241,411 241,401 231,401 231,411 231,421 
		241,421 251,421 251,431 241,431 241,441 231,441 231,431 221,431 221,421 221,411 221,401 231,401 231,391 241,391 241,381 
		231,381 231,371 231,361 241,361 241,351 	"/>
	<rect x="441" y="351" fill="#FFE3BB" width="10" height="10"/>
	<rect x="61" y="361" fill="#FFE3BB" width="10" height="10"/>
	<rect x="81" y="361" fill="#FFE3BB" width="10" height="10"/>
	<polygon fill="#FFE3BB" points="161,371 171,371 171,361 161,361 151,361 151,351 141,351 131,351 131,361 131,371 131,381 
		141,381 151,381 151,371 	"/>
	<polygon fill="#FFE3BB" points="301,371 301,381 301,391 311,391 311,381 311,371 311,361 301,361 	"/>
	<rect x="321" y="361" fill="#FFE3BB" width="10" height="10"/>
	<rect x="341" y="361" fill="#FFE3BB" width="10" height="10"/>
	<rect x="451" y="361" fill="#FFE3BB" width="10" height="10"/>
	<polygon fill="#FFE3BB" points="21,371 21,361 11,361 11,351 11,341 11,331 11,321 1,321 1,331 1,341 1,351 1,361 1,371 11,371 
		11,381 21,381 	"/>
	<polygon fill="#FFE3BB" points="31,371 31,381 41,381 51,381 51,371 51,361 41,361 41,371 	"/>
	<rect x="71" y="371" fill="#FFE3BB" width="10" height="10"/>
	<polygon fill="#FFE3BB" points="201,371 201,361 191,361 191,371 181,371 171,371 171,381 181,381 191,381 191,391 201,391 
		201,381 	"/>
	<rect x="441" y="371" fill="#FFE3BB" width="10" height="10"/>
	<polygon fill="#FFE3BB" points="471,381 471,391 481,391 481,381 481,371 491,371 501,371 501,361 491,361 481,361 471,361 
		471,371 461,371 461,381 	"/>
	<rect x="1" y="381" fill="#FFE3BB" width="10" height="10"/>
	<rect x="61" y="381" fill="#FFE3BB" width="10" height="10"/>
	<rect x="81" y="381" fill="#FFE3BB" width="10" height="10"/>
	<polygon fill="#FFE3BB" points="121,381 111,381 111,391 111,401 121,401 121,391 	"/>
	<polygon fill="#FFE3BB" points="151,381 151,391 151,401 161,401 161,391 171,391 171,381 161,381 	"/>
	<rect x="251" y="381" fill="#FFE3BB" width="10" height="10"/>
	<rect x="281" y="381" fill="#FFE3BB" width="10" height="10"/>
	<rect x="241" y="391" fill="#FFE3BB" width="10" height="10"/>
	<rect x="361" y="391" fill="#FFE3BB" width="10" height="10"/>
	<rect x="461" y="391" fill="#FFE3BB" width="10" height="10"/>
	<rect x="561" y="391" fill="#FFE3BB" width="10" height="10"/>
	<polygon fill="#FFE3BB" points="611,391 611,381 611,371 601,371 601,381 591,381 581,381 581,371 591,371 591,361 601,361 
		601,351 601,341 591,341 591,351 581,351 581,341 571,341 561,341 561,351 561,361 571,361 571,371 561,371 551,371 541,371 
		541,381 551,381 561,381 571,381 571,391 581,391 591,391 601,391 601,401 611,401 	"/>
	<polygon fill="#FFE3BB" points="81,411 91,411 101,411 101,401 91,401 81,401 81,391 71,391 71,401 61,401 61,411 71,411 	"/>
	<rect x="121" y="401" fill="#FFE3BB" width="10" height="10"/>
	<polygon fill="#FFE3BB" points="481,411 481,421 481,431 471,431 471,441 461,441 461,451 471,451 471,461 481,461 481,451 
		491,451 491,461 501,461 501,451 511,451 511,441 501,441 501,431 491,431 491,421 491,411 501,411 501,401 511,401 521,401 
		531,401 541,401 541,391 531,391 531,381 531,371 531,361 531,351 521,351 521,361 521,371 521,381 521,391 511,391 501,391 
		501,381 491,381 491,391 491,401 481,401 471,401 471,411 	"/>
	<rect x="591" y="401" fill="#FFE3BB" width="10" height="10"/>
	<polygon fill="#FFE3BB" points="31,421 31,411 41,411 51,411 51,401 41,401 31,401 21,401 21,391 11,391 11,401 1,401 1,411 1,421 
		11,421 11,431 21,431 21,421 	"/>
	<rect x="51" y="411" fill="#FFE3BB" width="10" height="10"/>
	<rect x="101" y="411" fill="#FFE3BB" width="10" height="10"/>
	<rect x="151" y="411" fill="#FFE3BB" width="10" height="10"/>
	<polygon fill="#FFE3BB" points="361,411 361,421 371,421 381,421 381,411 371,411 	"/>
	<polygon fill="#FFE3BB" points="71,431 81,431 81,421 71,421 61,421 61,431 	"/>
	<polygon fill="#FFE3BB" points="91,431 91,441 101,441 101,431 101,421 91,421 	"/>
	<polygon fill="#FFE3BB" points="121,431 131,431 131,421 121,421 111,421 111,431 	"/>
	<polygon fill="#FFE3BB" points="501,431 511,431 521,431 521,421 531,421 541,421 551,421 551,411 541,411 531,411 521,411 
		511,411 501,411 501,421 	"/>
	<rect x="551" y="421" fill="#FFE3BB" width="10" height="10"/>
	<rect x="51" y="431" fill="#FFE3BB" width="10" height="10"/>
	<polygon fill="#FFE3BB" points="141,441 151,441 151,431 141,431 131,431 131,441 	"/>
	<rect x="521" y="431" fill="#FFE3BB" width="10" height="10"/>
	<rect x="541" y="431" fill="#FFE3BB" width="10" height="10"/>
	<polygon fill="#FFE3BB" points="581,431 581,421 591,421 591,411 581,411 571,411 571,421 571,431 571,441 581,441 	"/>
	<polygon fill="#FFE3BB" points="71,441 61,441 61,451 71,451 81,451 81,441 	"/>
	<polygon fill="#FFE3BB" points="171,441 171,431 171,421 161,421 161,431 161,441 161,451 171,451 	"/>
	<polygon fill="#FFE3BB" points="301,441 311,441 311,431 321,431 321,441 311,441 311,451 321,451 331,451 331,441 331,431 
		341,431 341,421 351,421 351,411 341,411 341,401 351,401 351,391 341,391 341,381 331,381 321,381 321,391 331,391 331,401 
		331,411 321,411 321,401 311,401 311,411 311,421 301,421 301,431 291,431 291,441 291,451 301,451 	"/>
	<polygon fill="#FFE3BB" points="341,451 351,451 361,451 361,461 371,461 371,451 371,441 381,441 381,431 371,431 361,431 
		351,431 341,431 341,441 	"/>
	<rect x="381" y="441" fill="#FFE3BB" width="10" height="10"/>
	<rect x="441" y="441" fill="#FFE3BB" width="10" height="10"/>
	<polygon fill="#FFE3BB" points="561,451 561,461 561,471 551,471 541,471 541,481 531,481 521,481 521,471 511,471 511,461 
		501,461 501,471 501,481 511,481 511,491 501,491 501,501 511,501 511,511 521,511 521,501 531,501 531,511 541,511 541,501 
		551,501 551,511 561,511 571,511 581,511 581,501 581,491 571,491 561,491 551,491 551,481 561,481 571,481 581,481 591,481 
		591,471 601,471 611,471 611,461 601,461 591,461 591,451 601,451 601,441 611,441 611,431 611,421 601,421 591,421 591,431 
		591,441 581,441 581,451 581,461 571,461 571,451 571,441 561,441 551,441 551,451 	"/>
	<polygon fill="#FFE3BB" points="191,461 191,471 191,481 181,481 181,491 191,491 201,491 211,491 211,481 201,481 201,471 
		201,461 201,451 191,451 	"/>
	<rect x="331" y="451" fill="#FFE3BB" width="10" height="10"/>
	<polygon fill="#FFE3BB" points="431,451 431,441 421,441 411,441 411,431 401,431 391,431 391,441 401,441 401,451 401,461 
		391,461 391,471 381,471 381,461 371,461 371,471 371,481 381,481 381,491 371,491 371,481 361,481 351,481 351,491 361,491 
		361,501 361,511 361,521 371,521 371,511 371,501 381,501 391,501 391,491 401,491 401,481 401,471 411,471 411,481 411,491 
		411,501 411,511 401,511 401,501 391,501 391,511 381,511 381,521 391,521 391,531 391,541 401,541 401,531 411,531 411,521 
		421,521 431,521 431,511 421,511 421,501 431,501 431,491 431,481 421,481 421,471 431,471 431,461 441,461 441,451 	"/>
	<rect x="531" y="451" fill="#FFE3BB" width="10" height="10"/>
	<polygon fill="#FFE3BB" points="31,471 41,471 51,471 61,471 71,471 71,461 61,461 61,451 51,451 41,451 31,451 31,441 41,441 
		41,431 51,431 51,421 41,421 31,421 31,431 21,431 21,441 11,441 11,451 11,461 11,471 11,481 21,481 21,471 	"/>
	<rect x="321" y="461" fill="#FFE3BB" width="10" height="10"/>
	<rect x="351" y="461" fill="#FFE3BB" width="10" height="10"/>
	<polygon fill="#FFE3BB" points="451,461 441,461 441,471 441,481 451,481 451,471 461,471 461,481 461,491 471,491 471,481 
		481,481 481,491 481,501 491,501 491,491 501,491 501,481 491,481 491,471 481,471 471,471 471,461 461,461 	"/>
	<polygon fill="#FFE3BB" points="271,471 271,481 281,481 291,481 291,471 281,471 	"/>
	<polygon fill="#FFE3BB" points="341,471 331,471 331,481 341,481 351,481 351,471 	"/>
	<polygon fill="#FFE3BB" points="71,481 61,481 61,491 71,491 81,491 81,481 	"/>
	<polygon fill="#FFE3BB" points="601,491 611,491 611,481 601,481 591,481 591,491 	"/>
	<polygon fill="#FFE3BB" points="171,501 181,501 181,491 171,491 161,491 161,501 	"/>
	<rect x="241" y="491" fill="#FFE3BB" width="10" height="10"/>
	<polygon fill="#FFE3BB" points="281,501 291,501 291,491 281,491 271,491 261,491 261,501 251,501 251,511 241,511 241,501 
		231,501 231,511 231,521 231,531 221,531 221,521 221,511 221,501 221,491 211,491 211,501 211,511 201,511 201,521 211,521 
		211,531 201,531 201,541 211,541 221,541 221,551 231,551 231,541 241,541 241,531 241,521 251,521 261,521 261,511 271,511 
		271,501 	"/>
	<rect x="331" y="491" fill="#FFE3BB" width="10" height="10"/>
	<rect x="191" y="501" fill="#FFE3BB" width="10" height="10"/>
	<rect x="341" y="501" fill="#FFE3BB" width="10" height="10"/>
	<polygon fill="#FFE3BB" points="441,511 441,521 451,521 451,511 461,511 461,501 451,501 451,491 441,491 441,501 431,501 
		431,511 	"/>
	<rect x="471" y="501" fill="#FFE3BB" width="10" height="10"/>
	<rect x="491" y="501" fill="#FFE3BB" width="10" height="10"/>
	<rect x="591" y="501" fill="#FFE3BB" width="10" height="10"/>
	<rect x="331" y="511" fill="#FFE3BB" width="10" height="10"/>
	<rect x="481" y="511" fill="#FFE3BB" width="10" height="10"/>
	<path fill="#FFE3BB" d="M541,521h-10h-10h-10v10h10v10v10h-10v10h10v10h-10h-10v10h-10h-10v10h10v10h10h10v10h10h10h10h10h10v-10
		h-10h-10v-10h-10v10h-10v-10h10v-10h10v-10h10h10h10v-10h10v-10h-10v-10v-10v-10h-10h-10v-10h-10V521z M561,531v10v10v10h-10h-10
		h-10v-10v-10v-10h10h10H561z"/>
	<rect x="601" y="511" fill="#FFE3BB" width="10" height="10"/>
	<polygon fill="#FFE3BB" points="71,521 61,521 61,531 71,531 81,531 81,521 	"/>
	<polygon fill="#FFE3BB" points="121,521 111,521 111,511 101,511 91,511 91,501 101,501 111,501 121,501 121,511 121,521 131,521 
		131,511 141,511 141,501 131,501 131,491 121,491 111,491 111,481 121,481 121,471 131,471 131,461 141,461 151,461 151,471 
		141,471 131,471 131,481 131,491 141,491 141,481 151,481 151,491 161,491 161,481 161,471 171,471 181,471 181,461 171,461 
		161,461 161,451 151,451 141,451 131,451 121,451 121,441 111,441 111,451 101,451 91,451 81,451 81,461 81,471 91,471 91,481 
		91,491 81,491 81,501 71,501 61,501 61,491 51,491 51,501 41,501 41,491 41,481 31,481 21,481 21,491 21,501 21,511 11,511 1,511 
		1,521 1,531 11,531 21,531 31,531 41,531 41,521 31,521 31,511 41,511 41,521 51,521 51,511 61,511 71,511 81,511 81,521 91,521 
		91,531 81,531 81,541 81,551 81,561 91,561 91,551 101,551 101,561 101,571 111,571 111,561 111,551 111,541 101,541 101,531 
		111,531 111,541 121,541 121,531 	"/>
	<polygon fill="#FFE3BB" points="191,521 181,521 181,511 171,511 171,521 171,531 171,541 181,541 181,531 191,531 201,531 
		201,521 	"/>
	<rect x="431" y="521" fill="#FFE3BB" width="10" height="10"/>
	<polygon fill="#FFE3BB" points="461,531 461,541 461,551 471,551 471,541 471,531 471,521 461,521 451,521 451,531 	"/>
	<polygon fill="#FFE3BB" points="581,531 581,541 591,541 601,541 601,551 611,551 611,541 611,531 601,531 591,531 591,521 
		591,511 581,511 581,521 	"/>
	<rect x="251" y="531" fill="#FFE3BB" width="10" height="10"/>
	<rect x="411" y="531" fill="#FFE3BB" width="10" height="10"/>
	<polygon fill="#FFE3BB" points="441,541 441,551 451,551 451,541 451,531 441,531 	"/>
	<path fill="#FFE3BB" d="M51,541H41H31H21H11H1v10v10v10v10v10v10v10h10h10h10h10h10h10h10v-10v-10v-10v-10v-10v-10v-10H61H51z
		 M61,561v10v10v10v10H51H41H31H21H11v-10v-10v-10v-10v-10h10h10h10h10h10V561z"/>
	<rect x="191" y="541" fill="#FFE3BB" width="10" height="10"/>
	<rect x="301" y="541" fill="#FFE3BB" width="10" height="10"/>
	<rect x="421" y="541" fill="#FFE3BB" width="10" height="10"/>
	<polygon fill="#FFE3BB" points="501,541 501,531 491,531 481,531 481,541 491,541 491,551 491,561 491,571 501,571 501,561 
		501,551 511,551 511,541 	"/>
	<rect x="541" y="541" fill="#FFE3BB" width="10" height="10"/>
	<rect x="171" y="551" fill="#FFE3BB" width="10" height="10"/>
	<rect x="431" y="551" fill="#FFE3BB" width="10" height="10"/>
	<polygon fill="#FFE3BB" points="31,561 21,561 21,571 21,581 21,591 31,591 41,591 51,591 51,581 51,571 51,561 41,561 	"/>
	<polygon fill="#FFE3BB" points="481,561 471,561 461,561 451,561 451,571 451,581 461,581 461,591 451,591 451,601 441,601 
		441,611 451,611 461,611 471,611 471,601 471,591 471,581 481,581 481,571 	"/>
	<polygon fill="#FFE3BB" points="91,571 81,571 81,581 81,591 91,591 91,581 	"/>
	<path fill="#FFE3BB" d="M341,571v-10h-10v-10v-10v-10v-10h-10h-10v-10h10v-10v-10h-10v-10h-10v10v10v10h-10v10h-10v-10h-10v10v10
		v10h-10v10h-10h-10h-10v10v10h10v10v10h10v10h10v-10h10v10v10h10v-10v-10h10v-10v-10h10v10v10h10h10v-10v-10h10v10v10h-10v10h10v10
		h10v-10v-10h10v-10h-10V571z M281,581h-10v-10h-10v10h-10v-10v-10h10h10h10v10V581z M311,561h-10h-10v-10v-10v-10h10h10h10v10v10
		v10H311z"/>
	<polygon fill="#FFE3BB" points="361,571 361,561 361,551 371,551 381,551 381,561 391,561 391,551 391,541 381,541 381,531 
		381,521 371,521 371,531 371,541 361,541 351,541 351,531 341,531 341,541 341,551 341,561 351,561 351,571 351,581 361,581 
		371,581 371,571 	"/>
	<rect x="601" y="571" fill="#FFE3BB" width="10" height="10"/>
	<polygon fill="#FFE3BB" points="161,581 161,571 161,561 161,551 171,551 171,541 161,541 151,541 151,531 161,531 161,521 
		161,511 151,511 141,511 141,521 131,521 131,531 131,541 121,541 121,551 121,561 131,561 141,561 151,561 151,571 151,581 
		151,591 141,591 131,591 131,581 141,581 141,571 131,571 121,571 121,581 121,591 111,591 111,601 101,601 101,591 91,591 91,601 
		81,601 81,611 91,611 101,611 111,611 121,611 131,611 131,601 141,601 141,611 151,611 151,601 161,601 171,601 171,591 161,591 	
		"/>
	<rect x="371" y="581" fill="#FFE3BB" width="10" height="10"/>
	<polygon fill="#FFE3BB" points="441,581 431,581 421,581 411,581 411,571 421,571 431,571 431,561 421,561 411,561 411,551 
		411,541 401,541 401,551 401,561 391,561 391,571 401,571 401,581 391,581 391,591 401,591 401,601 391,601 391,611 401,611 
		411,611 421,611 431,611 431,601 421,601 421,591 431,591 441,591 451,591 451,581 	"/>
	<polygon fill="#FFE3BB" points="551,591 561,591 571,591 571,601 571,611 581,611 581,601 591,601 591,591 601,591 601,581 
		591,581 581,581 571,581 561,581 551,581 541,581 541,591 	"/>
	<polygon fill="#FFE3BB" points="231,591 231,581 231,571 221,571 221,561 221,551 211,551 211,561 201,561 201,571 211,571 
		211,581 221,581 221,591 211,591 211,581 201,581 201,571 191,571 191,581 181,581 171,581 171,591 181,591 181,601 191,601 
		191,591 201,591 201,601 201,611 211,611 211,601 221,601 231,601 241,601 241,591 	"/>
	<rect x="381" y="591" fill="#FFE3BB" width="10" height="10"/>
	<rect x="241" y="601" fill="#FFE3BB" width="10" height="10"/>
	<polygon fill="#FFE3BB" points="291,601 291,611 301,611 311,611 311,601 301,601 	"/>
	<polygon fill="#FFE3BB" points="361,601 361,611 371,611 381,611 381,601 371,601 	"/>
	<polygon fill="#FFE3BB" points="601,611 611,611 611,601 601,601 591,601 591,611 	"/>
</g>
</svg>
